# xmcd CD database file
# Copyright (C) 1993-1998 Ti Kan
# 
# Track frame offsets:
#     150
#     21830
#     44487
#     62300
#     85952
#     105837
#     129270
#     143600
#     161300
#     186020
# 
# Disc length: 2754 seconds
# 
# Revision: 1
# Processed by: cddbd v1.4b41PL1 Copyright (c) Steve Scherf et al.
# Submitted via: DiscPlay 4.0.4
# 
DISCID=6f0ac00a
DTITLE=Scrapper Blackwell - Mr. Scrapper's Blues
DYEAR=1900
DGENRE=
TTITLE0=Goin' Where The Monon Crosses The Yellow Dog
TTITLE1=Nobody Knows When You're Down And Out
TTITLE2=A Blues
TTITLE3=Little Girl Blues
TTITLE4=George Street Blues
TTITLE5=Blues Before Sunrise
TTITLE6=Little Boy Blue
TTITLE7=E Blues
TTITLE8=Shady Lane
TTITLE9=Penal Farm Blues
EXTD=
EXTT0=
EXTT1=
EXTT2=
EXTT3=
EXTT4=
EXTT5=
EXTT6=
EXTT7=
EXTT8=
EXTT9=
PLAYORDER=
